<?xml version="1.0" standalone="no"?>
<!DOCTYPE svg PUBLIC "-//W3C//DTD SVG 20010904//EN"
 "http://www.w3.org/TR/2001/REC-SVG-20010904/DTD/svg10.dtd">
<svg version="1.0" xmlns="http://www.w3.org/2000/svg"
 width="751.000000pt" height="751.000000pt" viewBox="0 0 751.000000 751.000000"
 preserveAspectRatio="xMidYMid meet">
<metadata>
Created by potrace 1.14, written by Peter Selinger 2001-2017
</metadata>
<g transform="translate(0.000000,751.000000) scale(0.100000,-0.100000)"
fill="#000000" stroke="none">
<path d="M3569 6586 c-2 -2 -29 -6 -59 -9 -513 -55 -1008 -373 -1297 -832 -89
-141 -193 -391 -218 -526 -3 -13 -9 -46 -15 -74 -12 -65 -17 -97 -26 -170 -3
-33 -7 -545 -7 -1138 l0 -1077 25 -47 c78 -153 300 -149 367 6 20 47 20 62 24
1157 1 610 6 1120 10 1134 4 14 10 41 13 60 5 29 27 116 38 155 2 6 4 13 5 17
1 4 18 45 37 90 185 433 571 743 1024 824 251 44 538 13 765 -83 63 -26 71
-30 144 -71 277 -153 502 -416 616 -718 25 -66 53 -165 61 -214 2 -14 6 -34 9
-45 14 -65 18 -307 19 -1240 l1 -1040 23 -38 c85 -136 273 -138 357 -3 l30 49
-1 1076 c0 592 -3 1108 -7 1146 -63 622 -429 1153 -985 1430 -152 75 -339 137
-482 160 -25 4 -54 10 -65 12 -25 6 -400 15 -406 9z"/>
<path d="M3233 5837 c-13 -6 -23 -21 -26 -41 -2 -17 -4 -295 -3 -617 1 -629 0
-619 51 -619 31 0 101 38 313 168 202 125 343 207 487 282 289 152 319 184
238 248 -37 28 -70 47 -218 127 -211 113 -400 223 -585 340 -164 104 -220 129
-257 112z"/>
<path d="M2911 4307 c-19 -6 -50 -26 -69 -45 -70 -71 -65 18 -67 -1262 -1
-635 -4 -1168 -8 -1185 -4 -16 -9 -41 -12 -55 -13 -68 -79 -176 -154 -250
-119 -117 -248 -172 -406 -171 -224 2 -420 122 -516 316 -57 116 -69 185 -69
420 0 227 -8 257 -75 312 -84 69 -202 64 -279 -13 -57 -57 -59 -71 -61 -299
-1 -237 5 -303 40 -426 32 -115 65 -187 130 -283 199 -297 531 -463 884 -443
184 11 342 64 498 167 249 165 413 438 441 735 4 44 7 586 6 1205 -1 1244 3
1164 -65 1231 -58 56 -135 73 -218 46z"/>
<path d="M3642 4298 c-47 -23 -88 -69 -106 -121 -8 -24 -11 -283 -11 -928 l0
-894 28 -47 c89 -152 319 -129 374 37 14 41 14 1787 0 1831 -13 43 -60 100
-100 121 -48 25 -133 25 -185 1z"/>
<path d="M4425 4301 c-50 -22 -101 -79 -115 -128 -8 -27 -10 -381 -8 -1228 l3
-1190 23 -75 c60 -199 128 -320 249 -447 158 -164 360 -270 576 -300 109 -16
309 -7 370 16 15 6 27 8 27 6 0 -9 148 49 218 86 142 75 265 187 357 324 70
106 126 229 140 314 3 19 8 38 11 43 12 18 18 144 18 348 -1 237 -3 247 -65
308 -96 94 -260 65 -325 -58 -16 -31 -19 -63 -20 -254 -2 -120 -6 -231 -9
-245 -4 -14 -9 -37 -11 -51 -9 -47 -71 -165 -118 -222 -53 -65 -146 -134 -225
-167 -60 -25 -73 -29 -150 -40 -289 -43 -584 168 -645 460 -11 51 -13 297 -14
1209 0 1047 -2 1148 -17 1185 -43 103 -169 152 -270 106z"/>
<path d="M2061 2215 c-141 -66 -166 -254 -46 -352 128 -106 322 -30 341 133
20 168 -143 289 -295 219z"/>
<path d="M5269 2230 c-126 -23 -202 -170 -148 -290 11 -25 28 -53 37 -63 44
-49 148 -75 221 -55 18 5 55 31 81 57 37 37 50 59 58 97 33 153 -94 282 -249
254z"/>
<path d="M3641 2068 c-75 -37 -122 -122 -114 -207 12 -135 147 -224 273 -181
173 59 199 285 43 381 -52 32 -145 35 -202 7z"/>
<path d="M3698 1540 c-50 -9 -111 -51 -137 -94 -28 -45 -38 -130 -21 -181 7
-21 32 -57 55 -81 102 -101 270 -72 336 59 30 57 24 149 -14 205 -47 72 -132
108 -219 92z"/>
</g>
</svg>
